<?xml version="1.0" standalone="no"?>
<!DOCTYPE svg PUBLIC "-//W3C//DTD SVG 20010904//EN"
 "http://www.w3.org/TR/2001/REC-SVG-20010904/DTD/svg10.dtd">
<svg version="1.0" xmlns="http://www.w3.org/2000/svg"
 width="860.000000pt" height="286.000000pt" viewBox="0 0 860.000000 286.000000"
 preserveAspectRatio="xMidYMid meet">

<g transform="translate(0.000000,286.000000) scale(0.100000,-0.100000)"
fill="#fff" stroke="none">
<path d="M320 2396 l0 -46 83 0 c97 0 160 -25 189 -75 9 -16 71 -243 138 -504
l121 -474 -25 -26 c-96 -100 -62 -262 66 -316 32 -13 121 -15 668 -15 l630 0
0 45 0 45 -630 0 -630 0 -30 28 c-22 19 -33 39 -37 69 -5 39 -2 46 30 78 l35
35 645 0 646 0 15 53 c44 153 206 735 206 741 0 3 -73 6 -163 6 l-163 0 -57
179 -57 179 -241 -78 c-132 -43 -242 -80 -244 -82 -2 -2 11 -47 29 -100 22
-66 29 -98 21 -98 -7 0 -37 75 -70 175 -36 107 -63 175 -71 175 -17 0 -462
-145 -470 -153 -5 -5 25 -107 54 -184 3 -10 -26 -13 -127 -13 l-130 0 -10 38
c-5 20 -19 75 -31 121 -25 101 -38 126 -82 167 -58 55 -93 68 -205 72 l-103 4
0 -46z m1098 -236 l41 -120 -177 0 -177 0 -24 66 c-13 37 -20 69 -15 74 9 9
281 99 301 99 6 1 29 -53 51 -119z m559 15 c18 -54 36 -107 39 -117 5 -17 -4
-18 -172 -16 l-177 3 -23 69 c-22 63 -22 68 -6 73 9 2 76 24 147 48 72 24 136
43 144 42 9 -1 28 -42 48 -102z m343 -237 c-1 -7 -38 -146 -84 -308 l-83 -295
-607 -3 -606 -2 -10 22 c-11 26 -150 570 -150 587 0 8 216 11 770 11 610 0
770 -3 770 -12z"/>
<path d="M5730 1580 l0 -540 70 0 70 0 0 252 c0 250 0 251 25 294 36 61 85 89
162 89 74 0 107 -20 141 -85 21 -42 22 -55 22 -297 l0 -253 71 0 70 0 -3 273
c-3 259 -4 274 -26 322 -48 105 -118 149 -232 150 -65 0 -82 -4 -128 -30 -30
-16 -65 -42 -78 -58 l-24 -29 0 226 0 226 -70 0 -70 0 0 -540z"/>
<path d="M2925 2064 c-16 -2 -45 -7 -62 -10 l-33 -5 0 -504 0 -503 67 -8 c106
-11 289 2 365 25 213 67 279 320 120 463 -22 20 -56 42 -76 49 -44 16 -45 23
-6 39 40 17 99 76 117 118 21 51 18 142 -6 190 -27 54 -90 105 -154 127 -51
17 -258 29 -332 19z m290 -124 c117 -56 112 -220 -8 -282 -33 -17 -64 -23
-144 -26 l-103 -4 0 165 0 166 28 4 c62 11 182 -1 227 -23z m7 -443 c85 -42
118 -106 104 -202 -9 -56 -54 -111 -112 -136 -47 -21 -165 -35 -218 -25 l-36
7 0 196 0 195 103 -4 c87 -3 111 -7 159 -31z"/>
<path d="M5187 2060 c-97 -25 -180 -90 -213 -168 -22 -54 -20 -151 5 -200 40
-78 105 -126 244 -181 42 -17 94 -42 115 -56 69 -46 99 -130 71 -202 -41 -109
-208 -144 -371 -79 -36 14 -67 26 -70 26 -9 0 -30 -98 -24 -109 4 -5 37 -20
74 -33 55 -19 87 -23 182 -23 105 1 120 3 178 29 74 34 142 104 160 164 18 59
15 160 -7 207 -29 65 -107 127 -220 175 -55 23 -119 54 -144 69 -103 66 -101
194 3 255 50 30 195 29 262 -1 l47 -21 15 46 c9 25 16 51 16 57 0 34 -235 67
-323 45z"/>
<path d="M3885 1771 c-44 -19 -99 -76 -111 -113 -7 -22 -7 -22 -15 -3 -4 11
-8 44 -8 73 l-1 52 -61 0 c-52 0 -60 -2 -55 -16 3 -9 6 -175 6 -370 l0 -354
65 0 65 0 0 205 c0 112 5 227 11 254 21 99 87 161 170 161 l49 0 0 65 0 65
-37 0 c-21 0 -56 -9 -78 -19z"/>
<path d="M6787 1779 c-187 -44 -300 -246 -257 -461 23 -116 89 -207 189 -255
49 -24 68 -27 151 -28 84 0 103 4 158 29 153 71 235 243 202 426 -27 152 -105
244 -240 284 -58 17 -142 19 -203 5z m207 -126 c26 -19 51 -50 71 -88 27 -52
30 -68 30 -149 0 -74 -5 -101 -24 -143 -80 -179 -293 -189 -380 -18 -34 65
-42 198 -16 274 21 63 78 128 130 147 60 21 139 12 189 -23z"/>
<path d="M7685 1772 c-33 -11 -68 -34 -102 -67 l-52 -50 -3 60 -3 60 -64 3
-64 3 7 -32 c3 -17 6 -251 6 -520 l0 -489 65 0 65 0 0 201 0 202 44 -41 c116
-107 311 -91 425 34 74 80 95 143 95 279 0 91 -4 120 -23 170 -32 83 -118 167
-192 189 -67 20 -140 19 -204 -2z m161 -111 c80 -37 124 -125 124 -251 0 -172
-79 -270 -218 -270 -79 0 -137 31 -176 94 -55 88 -47 280 13 364 56 76 168
104 257 63z"/>
<path d="M4133 1518 c4 -219 8 -272 23 -318 60 -180 283 -228 425 -91 27 26
51 45 54 43 3 -3 5 -29 5 -59 l0 -53 60 0 60 0 0 370 0 370 -70 0 -70 0 0
-242 c0 -214 -3 -248 -19 -283 -34 -75 -115 -122 -193 -112 -53 7 -83 29 -110
80 -22 40 -23 54 -26 300 l-3 257 -71 0 -71 0 6 -262z"/>
<path d="M1020 784 c-46 -20 -68 -41 -92 -88 -27 -54 -22 -140 13 -190 28 -42
108 -86 154 -86 51 0 127 44 158 92 46 71 32 184 -30 240 -50 46 -139 60 -203
32z m138 -84 c10 0 42 -70 42 -93 0 -44 -58 -97 -105 -97 -47 0 -105 53 -105
97 0 70 67 120 135 101 16 -4 31 -8 33 -8z"/>
<path d="M1715 785 c-48 -26 -83 -65 -101 -112 -58 -151 113 -306 255 -231 25
13 59 40 75 61 28 35 31 46 31 106 0 77 -22 120 -83 161 -44 31 -134 38 -177
15z m109 -75 c21 0 63 -48 69 -78 7 -35 -14 -85 -44 -106 -88 -61 -205 55
-143 143 19 26 72 53 92 46 8 -3 19 -5 26 -5z"/>
</g>
</svg>
